<?xml version="1.0" encoding="UTF-8"?>
<svg version="1.1" xmlns="http://www.w3.org/2000/svg" width="237" height="172">
<path d="M0 0 C2.12060547 0.40771484 2.12060547 0.40771484 4 1 C4.02350156 16.69179126 4.04106305 32.38357767 4.05181217 48.07538223 C4.05693884 55.36357466 4.06391114 62.65175606 4.07543945 69.93994141 C4.08549848 76.30235323 4.09187972 82.66475706 4.09408849 89.02717662 C4.09537683 92.38689947 4.09888993 95.74658159 4.10573006 99.10630035 C4.13502129 114.10515626 3.95925252 129.02910757 3 144 C2.01 144 1.02 144 0 144 C-0.8173705 127.1951406 -1.1938338 110.41686699 -1.31640625 93.59375 C-1.33705137 91.16182158 -1.35804934 88.72989614 -1.37937927 86.29797363 C-1.4338217 79.98541721 -1.48356444 73.67283277 -1.53222656 67.36022949 C-1.58302074 60.88335767 -1.63840026 54.40652508 -1.69335938 47.9296875 C-1.79998459 35.28649208 -1.90162998 22.64326216 -2 10 C-5.3 15.28 -8.6 20.56 -12 26 C-13.32 25.67 -14.64 25.34 -16 25 C-14.55523439 19.75663718 -12.15396383 15.80806077 -9.125 11.375 C-8.69058594 10.72015625 -8.25617188 10.0653125 -7.80859375 9.390625 C-3.05344688 2.33644316 -3.05344688 2.33644316 0 0 Z " fill="#2B83B1" transform="translate(114,10)"/>
<path d="M0 0 C2.87986872 0.25392391 3.91583681 0.91449823 5.96484375 2.99609375 C7.27764628 4.62084935 8.59014739 6.24584855 9.90234375 7.87109375 C12.16744646 10.45432602 12.16744646 10.45432602 17 12 C17 54.9 17 97.8 17 142 C15.68 142 14.36 142 13 142 C13 100.09 13 58.18 13 15 C11.35 14.67 9.7 14.34 8 14 C3.93641648 10.51460171 0.46481949 6.20824706 -1 1 C-0.67 0.67 -0.34 0.34 0 0 Z " fill="#187AAD" transform="translate(120,12)"/>
<path d="M0 0 C0.99 0 1.98 0 3 0 C3 37.95 3 75.9 3 115 C1.68 114.67 0.36 114.34 -1 114 C-1 80.67 -1 47.34 -1 13 C-1.66 13 -2.32 13 -3 13 C-3.25910156 13.68707031 -3.51820312 14.37414063 -3.78515625 15.08203125 C-5.16341669 18.39251533 -6.75771808 21.51939517 -8.4375 24.6875 C-9.03433594 25.82574219 -9.63117188 26.96398437 -10.24609375 28.13671875 C-12 31 -12 31 -15 33 C-15.66 32.67 -16.32 32.34 -17 32 C-16.39888157 27.82373332 -14.9757645 24.77705034 -12.91015625 21.11328125 C-12.29076172 20.01048828 -11.67136719 18.90769531 -11.03320312 17.77148438 C-10.05770508 16.05928711 -10.05770508 16.05928711 -9.0625 14.3125 C-8.4089509 13.1480974 -7.75595052 11.98338664 -7.10351562 10.81835938 C-2.28222919 2.28222919 -2.28222919 2.28222919 0 0 Z " fill="#1B6396" transform="translate(95,39)"/>
<path d="M0 0 C3.9814993 0.3754484 5.82069891 2.50932711 8.5 5.3125 C9.2528125 6.09238281 10.005625 6.87226562 10.78125 7.67578125 C11.5134375 8.44277344 12.245625 9.20976563 13 10 C13.69606857 10.55790726 14.39213715 11.11581451 15.10929871 11.69062805 C17.75929463 14.92743033 17.48851529 17.12417777 17.4699707 21.27416992 C17.4721611 22.00203201 17.4743515 22.7298941 17.47660828 23.47981262 C17.47892535 25.89715558 17.45256207 28.31328644 17.42578125 30.73046875 C17.42084463 32.43931189 17.41755406 34.1481605 17.41581726 35.85700989 C17.40619849 40.38359366 17.37178084 44.90968224 17.33294678 49.43609619 C17.30626291 53.02678947 17.2972387 56.61741283 17.28926277 60.20818901 C17.23830587 82.48616916 16.81718432 104.73700433 16 127 C15.01 127 14.02 127 13 127 C12.87133058 122.34886945 12.75043983 117.69758727 12.63262939 113.0461731 C12.5615069 110.33717361 12.48269738 107.6284611 12.40380859 104.91967773 C12.10160911 93.84674729 11.98248353 82.78961641 12.06596375 71.71368408 C12.10697524 66.19957405 12.11061087 60.68556193 12.10801029 55.17131805 C12.10900842 51.23220374 12.13129323 47.29542631 12.20022583 43.35687256 C12.26607126 39.5851029 12.27938892 35.81646748 12.25645256 32.04422951 C12.2573441 30.64519406 12.27712216 29.2460152 12.31778145 27.84757042 C12.48500705 21.80497877 12.56765378 16.48557924 8.50189209 11.73703003 C6.57336885 9.73373073 4.58434464 7.98802663 2.45968628 6.17503357 C0 4 0 4 -1 1 C-0.67 0.67 -0.34 0.34 0 0 Z " fill="#5DA6C9" transform="translate(140,27)"/>
<path d="M0 0 C1.32 0 2.64 0 4 0 C5.60486163 3.20972325 5.14139855 6.70103067 5.1328125 10.2265625 C5.13479141 11.52784843 5.13479141 11.52784843 5.1368103 12.85542297 C5.13876156 15.77864893 5.13228506 18.7017833 5.125 21.625 C5.12411377 22.62967316 5.12322754 23.63434631 5.12231445 24.66946411 C5.09233984 54.11577116 4.5288515 83.55925377 4 113 C3.01 113 2.02 113 1 113 C0.1377731 100.12837187 -0.13565768 87.32771179 -0.09765625 74.4296875 C-0.09578489 72.52727293 -0.0943644 70.62485786 -0.09336853 68.72244263 C-0.08959975 63.78084926 -0.07981959 58.83928656 -0.06866455 53.89770508 C-0.05832724 48.82894302 -0.05384486 43.76017587 -0.04882812 38.69140625 C-0.03819063 28.79425756 -0.02118446 18.89713136 0 9 C-1.29243468 10.1241176 -2.58392075 11.24932592 -3.875 12.375 C-4.59429687 13.00148438 -5.31359375 13.62796875 -6.0546875 14.2734375 C-7.4076598 15.47426834 -8.7208345 16.7208345 -10 18 C-11.32 18 -12.64 18 -14 18 C-13.50932845 13.76059777 -11.12808486 11.85510676 -8.125 9 C-4.50309828 5.57746544 -4.50309828 5.57746544 -1.4296875 1.6875 C-0.95789063 1.130625 -0.48609375 0.57375 0 0 Z " fill="#4F9AC0" transform="translate(230,41)"/>
<path d="M0 0 C4.47841062 0.08667892 8.46227623 1.02477623 11.75 4.3125 C11.8453919 5.69126025 11.87188622 7.07486916 11.87025452 8.45692444 C11.87162918 9.35019943 11.87300385 10.24347443 11.87442017 11.16381836 C11.87082489 12.15140137 11.86722961 13.13898437 11.86352539 14.15649414 C11.86367142 15.19051865 11.86381744 16.22454315 11.8639679 17.28990173 C11.86326827 20.72584086 11.85547358 24.16172653 11.84765625 27.59765625 C11.84579225 29.97277293 11.84436826 32.34789 11.84336853 34.7230072 C11.83954197 40.98826144 11.8297105 47.25349267 11.81866455 53.51873779 C11.8084534 59.9063689 11.80387155 66.29400371 11.79882812 72.68164062 C11.78808836 85.22527026 11.77120127 97.76888391 11.75 110.3125 C10.43 110.3125 9.11 110.3125 7.75 110.3125 C7.73969254 109.02432877 7.72938507 107.73615753 7.71876526 106.40895081 C7.62121426 94.29782537 7.51849805 82.18675341 7.41066074 70.07571507 C7.35538186 63.84859086 7.30195407 57.621462 7.25268555 51.39428711 C7.20511506 45.39018959 7.15277518 39.38615122 7.09705925 33.38212395 C7.07660243 31.08590089 7.057895 28.78966159 7.04092598 26.49341011 C7.01695535 23.28924786 6.98689113 20.0851986 6.95532227 16.88110352 C6.9495668 15.92157272 6.94381134 14.96204193 6.93788147 13.97343445 C6.92809265 13.10540192 6.91830383 12.23736938 6.90821838 11.34303284 C6.90176583 10.58439721 6.89531328 9.82576159 6.8886652 9.044137 C6.93591441 7.28227847 6.93591441 7.28227847 5.75 6.3125 C3.20130108 6.06976677 0.65395468 5.92883133 -1.90234375 5.7890625 C-4.25 5.3125 -4.25 5.3125 -6.25 2.3125 C-3.86629091 -0.07120909 -3.2563401 0.01661398 0 0 Z " fill="#2087B7" transform="translate(164.25,43.6875)"/>
<path d="M0 0 C2.125 0.0625 2.125 0.0625 5 1 C6.45703125 2.5546875 6.45703125 2.5546875 7.9375 4.4375 C10.61080977 7.82415408 12.72198057 9.00511176 17 10 C18.85547238 11.85547238 18.13052122 14.91960395 18.1328125 17.3984375 C18.13479141 18.42154274 18.13479141 18.42154274 18.1368103 19.46531677 C18.13876449 21.76858702 18.13227885 24.07174147 18.125 26.375 C18.12411377 27.16635345 18.12322754 27.95770691 18.12231445 28.77304077 C18.09206142 52.18569042 17.52666042 75.59430503 17 99 C16.01 99 15.02 99 14 99 C12.77598615 95.32795845 12.86829639 91.95439484 12.88647461 88.13208008 C12.88632858 87.33184921 12.88618256 86.53161835 12.8860321 85.70713806 C12.88672895 83.06124158 12.89451071 80.41541544 12.90234375 77.76953125 C12.90420874 75.93535907 12.90563226 74.1011864 12.90663147 72.26701355 C12.91045028 67.43863551 12.92027516 62.61028754 12.93133545 57.78192139 C12.94156323 52.85526944 12.94613202 47.92861263 12.95117188 43.00195312 C12.96189797 33.33462221 12.97896679 23.6673136 13 14 C12.3915625 13.88269531 11.783125 13.76539062 11.15625 13.64453125 C7.89650362 12.67015054 6.2870403 10.45856833 4 8 C3.236875 7.319375 2.47375 6.63875 1.6875 5.9375 C0 4 0 4 0 0 Z " fill="#238DBD" transform="translate(178,55)"/>
<path d="M0 0 C0.99 0.33 1.98 0.66 3 1 C3 31.36 3 61.72 3 93 C1.68 93 0.36 93 -1 93 C-1 64.95 -1 36.9 -1 8 C-3.31 9.32 -5.62 10.64 -8 12 C-11.4375 11.75 -11.4375 11.75 -14 11 C-14.33 9.68 -14.66 8.36 -15 7 C-12 6 -12 6 -9.1875 5.75 C-5.99845203 4.99963577 -5.13881571 4.46984151 -2.8125 2.375 C-1.884375 1.59125 -0.95625 0.8075 0 0 Z " fill="#0B88BC" transform="translate(212,61)"/>
<path d="M0 0 C1.32 0 2.64 0 4 0 C4 25.41 4 50.82 4 77 C2.68 77 1.36 77 0 77 C-0.33 55.55 -0.66 34.1 -1 12 C-3.97 16.95 -3.97 16.95 -7 22 C-7.66 22.66 -8.32 23.32 -9 24 C-11.125 23.625 -11.125 23.625 -13 23 C-11.3360231 18.16020433 -8.67731098 14.09466568 -5.9375 9.8125 C-5.02924044 8.38195935 -4.12165606 6.95098974 -3.21484375 5.51953125 C-2.81386475 4.89151611 -2.41288574 4.26350098 -1.99975586 3.61645508 C-0.94563325 1.96637627 -0.94563325 1.96637627 0 0 Z " fill="#1692C4" transform="translate(55,77)"/>
<path d="M0 0 C3.24271506 0.5590888 4.93057424 1.4132178 7 4 C7 4.66 7 5.32 7 6 C10.16115776 4.63016497 10.9927092 4.0109362 13 1 C14.32 1.33 15.64 1.66 17 2 C17.0233021 10.52846304 17.04100531 19.05691249 17.05181217 27.58539963 C17.05700226 31.54669072 17.06402841 35.50795983 17.07543945 39.46923828 C17.08640744 43.30125389 17.09230591 47.13324852 17.09487724 50.96527863 C17.09670668 52.41789327 17.10027828 53.87050693 17.10573006 55.32311249 C17.13670929 63.92979348 16.89175962 72.43288917 16 81 C15.01 81 14.02 81 13 81 C12.67 57.9 12.34 34.8 12 11 C10.68 11.33 9.36 11.66 8 12 C5.4375 9.75 5.4375 9.75 3 7 C2.401875 6.484375 1.80375 5.96875 1.1875 5.4375 C0 4 0 4 0 0 Z " fill="#1D8FC0" transform="translate(62,73)"/>
<path d="M0 0 C0 18.15 0 36.3 0 55 C-1.32 55 -2.64 55 -4 55 C-4.33 38.83 -4.66 22.66 -5 6 C-8.94873933 9.15899146 -10.77903741 10.74359405 -13.3125 14.75 C-13.82425781 15.54921875 -14.33601563 16.3484375 -14.86328125 17.171875 C-15.23839844 17.77515625 -15.61351562 18.3784375 -16 19 C-17.32 18.67 -18.64 18.34 -20 18 C-17.14975146 10.03896097 -9.4814525 -2.37036313 0 0 Z " fill="#1C9DCD" transform="translate(40,99)"/>
<path d="M0 0 C4.0315604 0.36328346 5.87265899 2.59291348 8.5625 5.4375 C10.99836547 7.99659643 13.04978421 10.03318947 16 12 C16.3742218 14.49142456 16.3742218 14.49142456 16.37231445 17.67138672 C16.38165764 19.45366165 16.38165764 19.45366165 16.39118958 21.27194214 C16.38197983 22.56149811 16.37277008 23.85105408 16.36328125 25.1796875 C16.36377975 26.49913361 16.36427826 27.81857971 16.36479187 29.17800903 C16.36470208 31.97409456 16.35426178 34.76989218 16.33618164 37.56591797 C16.31353785 41.14607322 16.31294158 44.72580603 16.31969929 48.30601311 C16.32304562 51.05986265 16.31639599 53.81361632 16.30657005 56.56744766 C16.30085798 58.52834531 16.30215284 60.48925932 16.30354309 62.45016479 C16.29401108 63.6446524 16.28447906 64.83914001 16.2746582 66.06982422 C16.27005081 67.12080292 16.26544342 68.17178162 16.26069641 69.25460815 C15.99982851 72.00180595 15.41318454 73.65719098 14 76 C13.15478185 72.33468428 12.87814175 68.9580702 12.88647461 65.19995117 C12.88655014 64.05914597 12.88662567 62.91834076 12.88670349 61.7429657 C12.89186478 60.52196671 12.89702606 59.30096771 12.90234375 58.04296875 C12.9037587 56.78486893 12.90517365 55.5267691 12.90663147 54.23054504 C12.91127427 50.89821471 12.92024772 47.56595368 12.93133545 44.23364258 C12.94159497 40.82829383 12.94613879 37.4229379 12.95117188 34.01757812 C12.9621917 27.34503302 12.978923 20.67252051 13 14 C12.38793701 13.87544434 11.77587402 13.75088867 11.14526367 13.62255859 C8.06228264 12.72787308 6.54030543 10.90067563 4.3125 8.625 C3.52488281 7.83351563 2.73726562 7.04203125 1.92578125 6.2265625 C0 4 0 4 -1 1 C-0.67 0.67 -0.34 0.34 0 0 Z " fill="#266394" transform="translate(140,27)"/>
<path d="M0 0 C1.32 0 2.64 0 4 0 C4.02493183 4.53490815 4.04296857 9.06977539 4.05493164 13.60473633 C4.05992496 15.14380591 4.06672194 16.68287084 4.07543945 18.22192383 C4.11950003 26.20725594 4.14483112 34.07632637 3 42 C2.34 41.67 1.68 41.34 1 41 C1 29.78 1 18.56 1 7 C-2.37654671 10.35577181 -2.37654671 10.35577181 -5.66015625 13.80078125 C-7.02913829 15.27653626 -8.51483515 16.64123216 -10 18 C-11.32 18 -12.64 18 -14 18 C-13.50932845 13.76059777 -11.12808486 11.85510676 -8.125 9 C-4.50309828 5.57746544 -4.50309828 5.57746544 -1.4296875 1.6875 C-0.95789063 1.130625 -0.48609375 0.57375 0 0 Z " fill="#1A6396" transform="translate(230,41)"/>
<path d="M0 0 C0.66 0.33 1.32 0.66 2 1 C2 11.89 2 22.78 2 34 C1.01 34 0.02 34 -1 34 C-1.66 26.41 -2.32 18.82 -3 11 C-4.0725 12.629375 -5.145 14.25875 -6.25 15.9375 C-9.45 20.79903846 -9.45 20.79903846 -12.234375 21.81640625 C-12.81703125 21.87699219 -13.3996875 21.93757813 -14 22 C-13.37334001 18.8561458 -12.30283866 16.61113906 -10.56640625 13.92578125 C-10.08236328 13.17619141 -9.59832031 12.42660156 -9.09960938 11.65429688 C-8.59236328 10.88150391 -8.08511719 10.10871094 -7.5625 9.3125 C-7.05912109 8.52810547 -6.55574219 7.74371094 -6.03710938 6.93554688 C-2.2581278 1.1290639 -2.2581278 1.1290639 0 0 Z " fill="#129DCF" transform="translate(18,120)"/>
<path d="M0 0 C0.33 0 0.66 0 1 0 C1.33 6.27 1.66 12.54 2 19 C2.33 17.02 2.66 15.04 3 13 C3.33 13 3.66 13 4 13 C4 28.18 4 43.36 4 59 C2.68 58.67 1.36 58.34 0 58 C0 38.86 0 19.72 0 0 Z " fill="#27ABD9" transform="translate(94,95)"/>
<path d="M0 0 C0.33 0 0.66 0 1 0 C1 19.47 1 38.94 1 59 C0.01 59 -0.98 59 -2 59 C-2 41.18 -2 23.36 -2 5 C-1.67 5 -1.34 5 -1 5 C-0.67 3.35 -0.34 1.7 0 0 Z " fill="#0CA1D4" transform="translate(233,95)"/>
<path d="M0 0 C0.99 0.33 1.98 0.66 3 1 C3 31.36 3 61.72 3 93 C2.67 93 2.34 93 2 93 C2 62.97 2 32.94 2 2 C-3 6.25464401 -3 6.25464401 -4 10 C-6.67990179 11.98511244 -7.88378631 12.01340927 -11.25 11.625 C-12.61125 11.315625 -12.61125 11.315625 -14 11 C-14.33 9.68 -14.66 8.36 -15 7 C-12 6 -12 6 -9.1875 5.75 C-5.99845203 4.99963577 -5.13881571 4.46984151 -2.8125 2.375 C-1.884375 1.59125 -0.95625 0.8075 0 0 Z " fill="#2F8EBB" transform="translate(212,61)"/>
<path d="M0 0 C0.99 0 1.98 0 3 0 C3 9.9 3 19.8 3 30 C3.66 30 4.32 30 5 30 C5.33 29.34 5.66 28.68 6 28 C6.04976954 32.14427102 6.08589288 36.28837953 6.10986328 40.43286133 C6.11986557 41.84011876 6.13347178 43.2473557 6.15087891 44.65454102 C6.17538366 46.68771448 6.18654083 48.72061106 6.1953125 50.75390625 C6.20578613 51.97408447 6.21625977 53.1942627 6.22705078 54.45141602 C5.98048118 58.30506028 5.18578175 61.34213 4 65 C3.67 65 3.34 65 3 65 C2.13599653 50.73566316 1.87307296 36.53821483 1.9375 22.25 C1.94253481 20.26953241 1.94709415 18.28906355 1.95117188 16.30859375 C1.96199813 11.53903015 1.97914854 6.76952987 2 2 C1.34 2 0.68 2 0 2 C0 1.34 0 0.68 0 0 Z " fill="#2484B4" transform="translate(92,50)"/>
<path d="M0 0 C0.33 0 0.66 0 1 0 C1 11.55 1 23.1 1 35 C1.66 35 2.32 35 3 35 C3 23.45 3 11.9 3 0 C3.33 0 3.66 0 4 0 C4 16.83 4 33.66 4 51 C2.68 51 1.36 51 0 51 C0 34.17 0 17.34 0 0 Z " fill="#2AABD8" transform="translate(172,103)"/>
<path d="M0 0 C0.74765625 -0.01675781 1.4953125 -0.03351562 2.265625 -0.05078125 C4.75 0.3125 4.75 0.3125 10.75 3.3125 C10.75 14.5325 10.75 25.7525 10.75 37.3125 C10.09 37.3125 9.43 37.3125 8.75 37.3125 C8.42 27.0825 8.09 16.8525 7.75 6.3125 C3.79 5.9825 -0.17 5.6525 -4.25 5.3125 C-4.91 4.3225 -5.57 3.3325 -6.25 2.3125 C-3.86629091 -0.07120909 -3.2563401 0.01661398 0 0 Z " fill="#186195" transform="translate(164.25,43.6875)"/>
<path d="M0 0 C0.33 0 0.66 0 1 0 C1.04950115 4.76886487 1.08576738 9.53757959 1.10986328 14.30664062 C1.11991023 15.92841192 1.13355015 17.55016516 1.15087891 19.171875 C1.17518493 21.50525374 1.18649613 23.8383926 1.1953125 26.171875 C1.20563507 26.89493835 1.21595764 27.61800171 1.22659302 28.36297607 C1.22741782 32.07798039 1.06235471 34.84581045 -1 38 C-2.41047466 32.04716379 -2.18601868 26.04856158 -2.18530273 19.97021484 C-2.18750055 17.87447127 -2.20571858 15.77924517 -2.22460938 13.68359375 C-2.22754169 12.34896013 -2.22952757 11.01432401 -2.23046875 9.6796875 C-2.23457764 8.47038574 -2.23868652 7.26108398 -2.24291992 6.01513672 C-2 3 -2 3 0 0 Z " fill="#0C7CB1" transform="translate(155,65)"/>
<path d="M0 0 C0.05811773 3.74993479 0.09363593 7.49975352 0.125 11.25 C0.14175781 12.31347656 0.15851563 13.37695312 0.17578125 14.47265625 C0.18222656 15.49746094 0.18867188 16.52226563 0.1953125 17.578125 C0.20578613 18.52075195 0.21625977 19.46337891 0.22705078 20.43457031 C-0.00880787 23.09951941 -0.64338341 24.71863092 -2 27 C-3 26 -3 26 -3.11352539 23.59155273 C-3.10828857 22.54942627 -3.10305176 21.5072998 -3.09765625 20.43359375 C-3.09443359 19.30888672 -3.09121094 18.18417969 -3.08789062 17.02539062 C-3.07951172 15.84138672 -3.07113281 14.65738281 -3.0625 13.4375 C-3.05798828 12.24962891 -3.05347656 11.06175781 -3.04882812 9.83789062 C-3.03699675 6.89187774 -3.02051287 3.94596319 -3 1 C-1 0 -1 0 0 0 Z " fill="#0E548C" transform="translate(156,42)"/>
<path d="M0 0 C-1.48805711 5.80342274 -4.59097555 10.17590879 -8 15 C-9.32 14.67 -10.64 14.34 -12 14 C-10.49825864 8.74390525 -8.62785506 3.7003768 -3.875 0.625 C-2 0 -2 0 0 0 Z " fill="#2D6897" transform="translate(110,21)"/>
<path d="M0 0 C0.33 0 0.66 0 1 0 C1.04939662 3.95096978 1.08571755 7.9018203 1.10986328 11.85302734 C1.12488107 13.8591136 1.15028981 15.86511324 1.17578125 17.87109375 C1.18222656 19.12792969 1.18867188 20.38476562 1.1953125 21.6796875 C1.20578613 22.84226074 1.21625977 24.00483398 1.22705078 25.20263672 C1 28 1 28 -1 30 C-2.27861615 27.44276771 -2.11336609 25.63262898 -2.09765625 22.7734375 C-2.09443359 21.7421875 -2.09121094 20.7109375 -2.08789062 19.6484375 C-2.07951172 18.56820312 -2.07113281 17.48796875 -2.0625 16.375 C-2.05798828 15.28703125 -2.05347656 14.1990625 -2.04882812 13.078125 C-2.03701776 10.38536211 -2.02054778 7.69270812 -2 5 C-1.67 5 -1.34 5 -1 5 C-0.67 3.35 -0.34 1.7 0 0 Z " fill="#1089BC" transform="translate(233,95)"/>
<path d="M0 0 C0.33 0.66 0.66 1.32 1 2 C1.66 2 2.32 2 3 2 C2.65986985 7.44208234 -0.70296528 10.93668198 -4 15 C-5.32 14.67 -6.64 14.34 -8 14 C-6.6744419 10.37723685 -5.05653045 7.36494652 -2.875 4.1875 C-2.33617187 3.39730469 -1.79734375 2.60710937 -1.2421875 1.79296875 C-0.83226562 1.20128906 -0.42234375 0.60960938 0 0 Z " fill="#2C8EBC" transform="translate(50,86)"/>
<path d="M0 0 C0.33 0 0.66 0 1 0 C1 1.98 1 3.96 1 6 C1.66 6 2.32 6 3 6 C3 4.35 3 2.7 3 1 C3.33 1 3.66 1 4 1 C4 8.59 4 16.18 4 24 C3.01 24 2.02 24 1 24 C0.3533402 15.98603754 -0.16677223 8.04212755 0 0 Z " fill="#09ACDF" transform="translate(16,130)"/>
<path d="M0 0 C1.65 0.33 3.3 0.66 5 1 C4.23925157 2.62974564 3.46601567 4.25366648 2.6875 5.875 C2.04361328 7.23238281 2.04361328 7.23238281 1.38671875 8.6171875 C0 11 0 11 -3 13 C-3.66 12.67 -4.32 12.34 -5 12 C-4.42365861 7.24518354 -2.44931479 4.02951788 0 0 Z " fill="#2B73A3" transform="translate(83,59)"/>
<path d="M0 0 C0.99 0 1.98 0 3 0 C3 5.94 3 11.88 3 18 C2.01 18 1.02 18 0 18 C0 12.06 0 6.12 0 0 Z " fill="#08A6D9" transform="translate(153,136)"/>
<path d="M0 0 C-1.55701931 4.67105792 -4.08447373 8.08705685 -7 12 C-8.32 11.67 -9.64 11.34 -11 11 C-9.01955329 5.76596226 -6.45470521 0 0 0 Z " fill="#1A91C2" transform="translate(31,106)"/>
<path d="M0 0 C0.33 0 0.66 0 1 0 C1.02903577 3.10414702 1.0468107 6.20825909 1.0625 9.3125 C1.07087891 10.19357422 1.07925781 11.07464844 1.08789062 11.98242188 C1.09111328 12.82998047 1.09433594 13.67753906 1.09765625 14.55078125 C1.10289307 15.33106689 1.10812988 16.11135254 1.11352539 16.9152832 C1 19 1 19 0 22 C-0.66 22 -1.32 22 -2 22 C-2.05454409 19.64551325 -2.0939279 17.29232125 -2.125 14.9375 C-2.14820312 13.62652344 -2.17140625 12.31554687 -2.1953125 10.96484375 C-1.99417522 6.88175701 -1.27165462 3.85000947 0 0 Z " fill="#1197C9" transform="translate(97,108)"/>
<path d="M0 0 C0.99 0.33 1.98 0.66 3 1 C3 7.27 3 13.54 3 20 C2.34 19.67 1.68 19.34 1 19 C-0.20255163 14.92342562 -0.10196591 10.91035258 -0.0625 6.6875 C-0.05347656 5.43324219 -0.04445312 4.17898437 -0.03515625 2.88671875 C-0.01775391 1.45779297 -0.01775391 1.45779297 0 0 Z " fill="#0B88BD" transform="translate(153,98)"/>
<path d="M0 0 C-1.49102561 4.60862461 -3.69454418 7.53330244 -7 11 C-7.99 11 -8.98 11 -10 11 C-9.42429187 7.11397015 -7.58424279 4.88827136 -5 2 C-2 0 -2 0 0 0 Z " fill="#16A7D7" transform="translate(14,131)"/>
<path d="M0 0 C0.33 0 0.66 0 1 0 C1 4.62 1 9.24 1 14 C0.01 14.33 -0.98 14.66 -2 15 C-2.05406122 13.06280622 -2.09282025 11.12518079 -2.125 9.1875 C-2.14820313 8.10855469 -2.17140625 7.02960938 -2.1953125 5.91796875 C-2 3 -2 3 0 0 Z " fill="#0E699F" transform="translate(155,65)"/>
<path d="M0 0 C0.33 0 0.66 0 1 0 C1.05383848 2.45862401 1.09359038 4.9160755 1.125 7.375 C1.14175781 8.07367188 1.15851563 8.77234375 1.17578125 9.4921875 C1.19344267 11.32897486 1.10303261 13.16601963 1 15 C0.34 15.66 -0.32 16.32 -1 17 C-2.26237731 14.47524538 -2.09856404 12.68799534 -2.0625 9.875 C-2.05347656 8.96492188 -2.04445312 8.05484375 -2.03515625 7.1171875 C-2.02355469 6.41851562 -2.01195312 5.71984375 -2 5 C-1.67 5 -1.34 5 -1 5 C-0.67 3.35 -0.34 1.7 0 0 Z " fill="#1093C6" transform="translate(233,108)"/>
<path d="M0 0 C1.485 0.99 1.485 0.99 3 2 C3.36328125 4.2421875 3.36328125 4.2421875 3.3125 6.875 C3.30863281 7.73867188 3.30476562 8.60234375 3.30078125 9.4921875 C2.9897786 12.0852226 2.30753633 13.75999753 1 16 C0 15 0 15 -0.09765625 11.62109375 C-0.09098369 10.22652923 -0.07902532 8.83198257 -0.0625 7.4375 C-0.05798828 6.72658203 -0.05347656 6.01566406 -0.04882812 5.28320312 C-0.03700864 3.52209987 -0.01907263 1.76103964 0 0 Z " fill="#105F95" transform="translate(153,53)"/>
<path d="M0 0 C0.33 0 0.66 0 1 0 C1 4.29 1 8.58 1 13 C0.01 13 -0.98 13 -2 13 C-2.05416188 11.39620659 -2.09286638 9.79188594 -2.125 8.1875 C-2.14820313 7.29417969 -2.17140625 6.40085938 -2.1953125 5.48046875 C-2 3 -2 3 0 0 Z " fill="#0EAEE1" transform="translate(233,141)"/>
<path d="M0 0 C0.33 0 0.66 0 1 0 C1 1.98 1 3.96 1 6 C1.66 6 2.32 6 3 6 C3 4.35 3 2.7 3 1 C3.33 1 3.66 1 4 1 C4 4.3 4 7.6 4 11 C2.68 10.67 1.36 10.34 0 10 C0 6.7 0 3.4 0 0 Z " fill="#26ACDA" transform="translate(16,130)"/>
<path d="M0 0 C0.05399736 1.45792884 0.09279177 2.91642712 0.125 4.375 C0.14820313 5.18710938 0.17140625 5.99921875 0.1953125 6.8359375 C0 9 0 9 -2 11 C-3 10 -3 10 -3.09765625 7.93359375 C-3.08605469 7.10988281 -3.07445312 6.28617187 -3.0625 5.4375 C-3.05347656 4.61121094 -3.04445312 3.78492187 -3.03515625 2.93359375 C-3.02355469 2.29550781 -3.01195312 1.65742187 -3 1 C-1 0 -1 0 0 0 Z " fill="#0D73A8" transform="translate(156,79)"/>
<path d="M0 0 C0.99 0 1.98 0 3 0 C3 2.97 3 5.94 3 9 C2.01 9 1.02 9 0 9 C0 6.03 0 3.06 0 0 Z " fill="#09AEE1" transform="translate(153,145)"/>
<path d="M0 0 C0.33 0 0.66 0 1 0 C2.97094808 4.92737019 3.1799928 8.78020872 3 14 C2.34 14 1.68 14 1 14 C0.04738513 9.23692563 -0.08333357 4.8333472 0 0 Z " fill="#0A93C7" transform="translate(153,112)"/>
<path d="M0 0 C0.33 0.66 0.66 1.32 1 2 C1.66 2 2.32 2 3 2 C2.67 3.65 2.34 5.3 2 7 C0.68 7 -0.64 7 -2 7 C-1.125 1.125 -1.125 1.125 0 0 Z " fill="#2585B5" transform="translate(50,86)"/>
<path d="M0 0 C1.32 0.33 2.64 0.66 4 1 C3.34 2.65 2.68 4.3 2 6 C0.68 5.67 -0.64 5.34 -2 5 C-1.34 3.35 -0.68 1.7 0 0 Z " fill="#2198C8" transform="translate(22,112)"/>
<path d="M0 0 C0.66 0.66 1.32 1.32 2 2 C2.99 1.67 3.98 1.34 5 1 C3.25 4.875 3.25 4.875 1 6 C0.34 5.67 -0.32 5.34 -1 5 C-0.67 3.35 -0.34 1.7 0 0 Z " fill="#4688B2" transform="translate(79,66)"/>
<path d="M0 0 C2.05078125 0.03255208 4.1015625 0.06510417 6.15234375 0.09765625 C5.82234375 0.75765625 5.49234375 1.41765625 5.15234375 2.09765625 C3.17234375 2.09765625 1.19234375 2.09765625 -0.84765625 2.09765625 C-1.17765625 3.08765625 -1.50765625 4.07765625 -1.84765625 5.09765625 C-2.41015625 3.16015625 -2.41015625 3.16015625 -2.84765625 1.09765625 C-1.84765625 0.09765625 -1.84765625 0.09765625 0 0 Z " fill="#4889B2" transform="translate(199.84765625,66.90234375)"/>
</svg>
